<svg width="131" height="19" viewBox="0 0 131 19" fill="none" xmlns="http://www.w3.org/2000/svg">
<path d="M9.00391 0.574219C10.0664 0.574219 11 0.761719 11.8047 1.13672C12.6094 1.50391 13.3047 2.00391 13.8906 2.63672C14.4766 3.26172 14.9648 3.98828 15.3555 4.81641C15.7539 5.63672 16.0703 6.5 16.3047 7.40625C16.5391 8.30469 16.7031 9.21875 16.7969 10.1484C16.8984 11.0703 16.9492 11.9453 16.9492 12.7734C16.9492 13.5 16.9023 14.1953 16.8086 14.8594C16.7148 15.5234 16.6133 16.1172 16.5039 16.6406C16.3711 17.25 16.2227 17.8242 16.0586 18.3633L12.5078 17.7305C12.7344 17.1914 12.9453 16.5781 13.1406 15.8906C13.3438 15.2031 13.5234 14.5 13.6797 13.7812C12.7344 13.6953 11.7891 13.6406 10.8438 13.6172C9.90625 13.5938 8.97266 13.582 8.04297 13.582C7.31641 13.582 6.58984 13.5859 5.86328 13.5938C5.13672 13.6016 4.40625 13.6289 3.67188 13.6758C3.82812 14.3398 4.01172 15.0039 4.22266 15.668C4.43359 16.332 4.67578 17.0117 4.94922 17.707L1.24609 18.3867C1.07422 18.0273 0.917969 17.6094 0.777344 17.1328C0.660156 16.7266 0.550781 16.2344 0.449219 15.6562C0.355469 15.0703 0.308594 14.4102 0.308594 13.6758C0.308594 12.7148 0.347656 11.7266 0.425781 10.7109C0.511719 9.6875 0.664062 8.69141 0.882812 7.72266C1.10938 6.75391 1.42188 5.83594 1.82031 4.96875C2.22656 4.10156 2.75 3.34375 3.39062 2.69531C4.03906 2.03906 4.82031 1.52344 5.73438 1.14844C6.65625 0.765625 7.74609 0.574219 9.00391 0.574219ZM3.16797 8.90625C3.16797 9.55469 3.19141 10.1836 3.23828 10.793C3.28516 11.3945 3.35938 11.9883 3.46094 12.5742C4.24219 12.6211 5.01953 12.6484 5.79297 12.6562C6.57422 12.6641 7.36328 12.668 8.16016 12.668C9.10547 12.668 10.0547 12.6641 11.0078 12.6562C11.9688 12.6406 12.9336 12.5977 13.9023 12.5273C14.043 11.6602 14.1133 10.8438 14.1133 10.0781C14.1133 9.52344 14.0703 8.93359 13.9844 8.30859C13.9062 7.68359 13.7773 7.06641 13.5977 6.45703C13.418 5.83984 13.1836 5.25 12.8945 4.6875C12.6133 4.125 12.2656 3.63281 11.8516 3.21094C11.4375 2.78125 10.957 2.44141 10.4102 2.19141C9.87109 1.93359 9.25781 1.80469 8.57031 1.80469C7.9375 1.80469 7.36719 1.90625 6.85938 2.10938C6.35156 2.3125 5.89453 2.58984 5.48828 2.94141C5.08984 3.29297 4.74219 3.70312 4.44531 4.17188C4.15625 4.63281 3.91797 5.12891 3.73047 5.66016C3.54297 6.18359 3.40234 6.72266 3.30859 7.27734C3.21484 7.83203 3.16797 8.375 3.16797 8.90625ZM36.4609 1.30078C36.4609 1.30078 36.4609 1.45703 36.4609 1.76953C36.4609 2.08203 36.4531 2.51172 36.4375 3.05859C36.4297 3.60547 36.4141 4.25 36.3906 4.99219C36.3672 5.72656 36.332 6.52344 36.2852 7.38281C36.2461 8.24219 36.1953 9.13672 36.1328 10.0664C36.0703 10.9961 35.9883 11.9258 35.8867 12.8555C35.793 13.7773 35.6836 14.6797 35.5586 15.5625C35.4336 16.4375 35.2852 17.25 35.1133 18L32.875 18.0938C32.4844 17.5078 32.0469 16.8438 31.5625 16.1016C31.0781 15.3594 30.5703 14.582 30.0391 13.7695C29.5156 12.9492 28.9805 12.1172 28.4336 11.2734C27.8945 10.4219 27.375 9.59766 26.875 8.80078C25.6953 6.93359 24.4805 5.00781 23.2305 3.02344C23.1914 5.14844 23.1641 7.17188 23.1484 9.09375C23.1406 9.91406 23.1367 10.75 23.1367 11.6016C23.1367 12.4531 23.1367 13.2734 23.1367 14.0625C23.1445 14.8516 23.1562 15.5859 23.1719 16.2656C23.1953 16.9453 23.2227 17.5234 23.2539 18L20.7578 18.3164C20.6328 17.6602 20.5273 16.9141 20.4414 16.0781C20.3555 15.2422 20.2812 14.3633 20.2188 13.4414C20.1641 12.5195 20.1211 11.582 20.0898 10.6289C20.0586 9.66797 20.0352 8.73438 20.0195 7.82812C19.9883 5.71094 19.9883 3.52734 20.0195 1.27734L24.6953 0.914062L33.0742 15.457C33.1602 14.4414 33.2109 13.3516 33.2266 12.1875C33.2422 11.0156 33.2266 9.80859 33.1797 8.56641C33.1406 7.32422 33.0703 6.06641 32.9688 4.79297C32.8672 3.51953 32.7422 2.26562 32.5938 1.03125L36.4609 1.30078ZM43.3164 1.00781L42.7188 17.9766L40.3516 18.0234L39.8711 1.21875L43.3164 1.00781ZM45.7539 17.7656C45.8398 17.0312 45.957 16.2031 46.1055 15.2812C46.2617 14.3594 46.4414 13.3945 46.6445 12.3867C46.8555 11.3711 47.082 10.3398 47.3242 9.29297C47.5742 8.23828 47.8359 7.21484 48.1094 6.22266C48.3906 5.22266 48.6797 4.27734 48.9766 3.38672C49.2734 2.49609 49.5742 1.70312 49.8789 1.00781L52.5859 0.84375C52.8203 1.29688 53.0703 1.82422 53.3359 2.42578C53.6094 3.02734 53.8906 3.67578 54.1797 4.37109C54.4766 5.05859 54.7773 5.78125 55.082 6.53906C55.3867 7.29688 55.6875 8.06641 55.9844 8.84766C56.2812 9.62109 56.5703 10.3906 56.8516 11.1562C57.1328 11.9219 57.3984 12.6602 57.6484 13.3711C57.8047 12.5586 57.9922 11.6523 58.2109 10.6523C58.4297 9.64453 58.6758 8.60156 58.9492 7.52344C59.2305 6.4375 59.5352 5.33984 59.8633 4.23047C60.1914 3.11328 60.543 2.03906 60.918 1.00781L64.1055 0.84375C64.5742 2.08594 65.0781 3.53906 65.6172 5.20312C66.0781 6.63281 66.6016 8.375 67.1875 10.4297C67.7812 12.4844 68.3945 14.8398 69.0273 17.4961L64.9492 18.3398C64.9414 18.0117 64.9141 17.5977 64.8672 17.0977C64.8281 16.5898 64.7695 16.0273 64.6914 15.4102C64.6211 14.793 64.5352 14.1328 64.4336 13.4297C64.332 12.7188 64.2188 11.9922 64.0938 11.25C63.9766 10.5078 63.8438 9.76172 63.6953 9.01172C63.5547 8.25391 63.4023 7.52344 63.2383 6.82031C63.082 6.10938 62.9141 5.4375 62.7344 4.80469C62.5625 4.16406 62.3867 3.58594 62.207 3.07031C61.9336 3.82812 61.6758 4.60938 61.4336 5.41406C61.1914 6.21094 60.9648 7.00781 60.7539 7.80469C60.5508 8.60156 60.3594 9.38281 60.1797 10.1484C60.0078 10.9141 59.8516 11.6367 59.7109 12.3164C59.3828 13.918 59.0977 15.4844 58.8555 17.0156L56.0664 17.3789C56.0664 17.3867 56 17.1914 55.8672 16.793C55.7422 16.3867 55.5625 15.8438 55.3281 15.1641C55.0938 14.4766 54.8164 13.6758 54.4961 12.7617C54.1758 11.8477 53.8281 10.8828 53.4531 9.86719C53.0781 8.85156 52.6797 7.80859 52.2578 6.73828C51.8438 5.66797 51.4258 4.63672 51.0039 3.64453C50.6758 4.67578 50.3945 5.78906 50.1602 6.98438C49.9258 8.17969 49.7266 9.41406 49.5625 10.6875C49.4062 11.9609 49.2773 13.25 49.1758 14.5547C49.0742 15.8516 48.9961 17.1133 48.9414 18.3398L45.7539 17.7656ZM89.2773 9.55078C89.2773 10.4492 89.1641 11.3008 88.9375 12.1055C88.7109 12.9023 88.3906 13.6406 87.9766 14.3203C87.5625 15 87.0664 15.6094 86.4883 16.1484C85.9102 16.6875 85.2695 17.1445 84.5664 17.5195C83.8633 17.8945 83.1094 18.1836 82.3047 18.3867C81.5 18.5898 80.6641 18.6914 79.7969 18.6914C78.4453 18.6914 77.1992 18.4727 76.0586 18.0352C74.9258 17.6055 73.9453 16.9922 73.1172 16.1953C72.2969 15.3984 71.6562 14.4375 71.1953 13.3125C70.7344 12.1875 70.5039 10.9336 70.5039 9.55078C70.5039 8.66797 70.6133 7.82812 70.832 7.03125C71.0508 6.23438 71.3594 5.5 71.7578 4.82812C72.1562 4.14844 72.6367 3.53516 73.1992 2.98828C73.7617 2.44141 74.3867 1.98047 75.0742 1.60547C75.7695 1.22266 76.5117 0.929688 77.3008 0.726562C78.0977 0.515625 78.9297 0.410156 79.7969 0.410156C80.6641 0.410156 81.5 0.511719 82.3047 0.714844C83.1172 0.910156 83.875 1.19531 84.5781 1.57031C85.2812 1.94531 85.9219 2.40234 86.5 2.94141C87.0781 3.48047 87.5703 4.08984 87.9766 4.76953C88.3906 5.44922 88.7109 6.19141 88.9375 6.99609C89.1641 7.79297 89.2773 8.64453 89.2773 9.55078ZM86.0547 9.55078C86.0547 8.93359 86 8.30859 85.8906 7.67578C85.7891 7.03516 85.6289 6.42188 85.4102 5.83594C85.1914 5.24219 84.9141 4.6875 84.5781 4.17188C84.25 3.64844 83.8555 3.19531 83.3945 2.8125C82.9414 2.42188 82.4258 2.11719 81.8477 1.89844C81.2695 1.67188 80.625 1.55859 79.9141 1.55859C79.2031 1.55859 78.5586 1.67188 77.9805 1.89844C77.4023 2.125 76.8867 2.43359 76.4336 2.82422C75.9805 3.20703 75.5859 3.66016 75.25 4.18359C74.9141 4.69922 74.6367 5.25391 74.418 5.84766C74.1992 6.44141 74.0352 7.05469 73.9258 7.6875C73.8242 8.32031 73.7734 8.94141 73.7734 9.55078C73.7734 10.1992 73.8203 10.8477 73.9141 11.4961C74.0078 12.1445 74.1562 12.7656 74.3594 13.3594C74.5625 13.9453 74.8242 14.4961 75.1445 15.0117C75.4727 15.5195 75.8633 15.9609 76.3164 16.3359C76.7695 16.7109 77.293 17.0078 77.8867 17.2266C78.4883 17.4375 79.1641 17.543 79.9141 17.543C80.6406 17.543 81.2969 17.4336 81.8828 17.2148C82.4688 16.9961 82.9883 16.6953 83.4414 16.3125C83.9023 15.9297 84.2969 15.4844 84.625 14.9766C84.9531 14.4609 85.2227 13.9062 85.4336 13.3125C85.6445 12.7188 85.8008 12.1016 85.9023 11.4609C86.0039 10.8203 86.0547 10.1836 86.0547 9.55078ZM110.09 9.55078C110.09 10.4492 109.977 11.3008 109.75 12.1055C109.523 12.9023 109.203 13.6406 108.789 14.3203C108.375 15 107.879 15.6094 107.301 16.1484C106.723 16.6875 106.082 17.1445 105.379 17.5195C104.676 17.8945 103.922 18.1836 103.117 18.3867C102.312 18.5898 101.477 18.6914 100.609 18.6914C99.2578 18.6914 98.0117 18.4727 96.8711 18.0352C95.7383 17.6055 94.7578 16.9922 93.9297 16.1953C93.1094 15.3984 92.4688 14.4375 92.0078 13.3125C91.5469 12.1875 91.3164 10.9336 91.3164 9.55078C91.3164 8.66797 91.4258 7.82812 91.6445 7.03125C91.8633 6.23438 92.1719 5.5 92.5703 4.82812C92.9688 4.14844 93.4492 3.53516 94.0117 2.98828C94.5742 2.44141 95.1992 1.98047 95.8867 1.60547C96.582 1.22266 97.3242 0.929688 98.1133 0.726562C98.9102 0.515625 99.7422 0.410156 100.609 0.410156C101.477 0.410156 102.312 0.511719 103.117 0.714844C103.93 0.910156 104.688 1.19531 105.391 1.57031C106.094 1.94531 106.734 2.40234 107.312 2.94141C107.891 3.48047 108.383 4.08984 108.789 4.76953C109.203 5.44922 109.523 6.19141 109.75 6.99609C109.977 7.79297 110.09 8.64453 110.09 9.55078ZM106.867 9.55078C106.867 8.93359 106.812 8.30859 106.703 7.67578C106.602 7.03516 106.441 6.42188 106.223 5.83594C106.004 5.24219 105.727 4.6875 105.391 4.17188C105.062 3.64844 104.668 3.19531 104.207 2.8125C103.754 2.42188 103.238 2.11719 102.66 1.89844C102.082 1.67188 101.438 1.55859 100.727 1.55859C100.016 1.55859 99.3711 1.67188 98.793 1.89844C98.2148 2.125 97.6992 2.43359 97.2461 2.82422C96.793 3.20703 96.3984 3.66016 96.0625 4.18359C95.7266 4.69922 95.4492 5.25391 95.2305 5.84766C95.0117 6.44141 94.8477 7.05469 94.7383 7.6875C94.6367 8.32031 94.5859 8.94141 94.5859 9.55078C94.5859 10.1992 94.6328 10.8477 94.7266 11.4961C94.8203 12.1445 94.9688 12.7656 95.1719 13.3594C95.375 13.9453 95.6367 14.4961 95.957 15.0117C96.2852 15.5195 96.6758 15.9609 97.1289 16.3359C97.582 16.7109 98.1055 17.0078 98.6992 17.2266C99.3008 17.4375 99.9766 17.543 100.727 17.543C101.453 17.543 102.109 17.4336 102.695 17.2148C103.281 16.9961 103.801 16.6953 104.254 16.3125C104.715 15.9297 105.109 15.4844 105.438 14.9766C105.766 14.4609 106.035 13.9062 106.246 13.3125C106.457 12.7188 106.613 12.1016 106.715 11.4609C106.816 10.8203 106.867 10.1836 106.867 9.55078ZM130.902 9.55078C130.902 10.4492 130.789 11.3008 130.562 12.1055C130.336 12.9023 130.016 13.6406 129.602 14.3203C129.188 15 128.691 15.6094 128.113 16.1484C127.535 16.6875 126.895 17.1445 126.191 17.5195C125.488 17.8945 124.734 18.1836 123.93 18.3867C123.125 18.5898 122.289 18.6914 121.422 18.6914C120.07 18.6914 118.824 18.4727 117.684 18.0352C116.551 17.6055 115.57 16.9922 114.742 16.1953C113.922 15.3984 113.281 14.4375 112.82 13.3125C112.359 12.1875 112.129 10.9336 112.129 9.55078C112.129 8.66797 112.238 7.82812 112.457 7.03125C112.676 6.23438 112.984 5.5 113.383 4.82812C113.781 4.14844 114.262 3.53516 114.824 2.98828C115.387 2.44141 116.012 1.98047 116.699 1.60547C117.395 1.22266 118.137 0.929688 118.926 0.726562C119.723 0.515625 120.555 0.410156 121.422 0.410156C122.289 0.410156 123.125 0.511719 123.93 0.714844C124.742 0.910156 125.5 1.19531 126.203 1.57031C126.906 1.94531 127.547 2.40234 128.125 2.94141C128.703 3.48047 129.195 4.08984 129.602 4.76953C130.016 5.44922 130.336 6.19141 130.562 6.99609C130.789 7.79297 130.902 8.64453 130.902 9.55078ZM127.68 9.55078C127.68 8.93359 127.625 8.30859 127.516 7.67578C127.414 7.03516 127.254 6.42188 127.035 5.83594C126.816 5.24219 126.539 4.6875 126.203 4.17188C125.875 3.64844 125.48 3.19531 125.02 2.8125C124.566 2.42188 124.051 2.11719 123.473 1.89844C122.895 1.67188 122.25 1.55859 121.539 1.55859C120.828 1.55859 120.184 1.67188 119.605 1.89844C119.027 2.125 118.512 2.43359 118.059 2.82422C117.605 3.20703 117.211 3.66016 116.875 4.18359C116.539 4.69922 116.262 5.25391 116.043 5.84766C115.824 6.44141 115.66 7.05469 115.551 7.6875C115.449 8.32031 115.398 8.94141 115.398 9.55078C115.398 10.1992 115.445 10.8477 115.539 11.4961C115.633 12.1445 115.781 12.7656 115.984 13.3594C116.188 13.9453 116.449 14.4961 116.77 15.0117C117.098 15.5195 117.488 15.9609 117.941 16.3359C118.395 16.7109 118.918 17.0078 119.512 17.2266C120.113 17.4375 120.789 17.543 121.539 17.543C122.266 17.543 122.922 17.4336 123.508 17.2148C124.094 16.9961 124.613 16.6953 125.066 16.3125C125.527 15.9297 125.922 15.4844 126.25 14.9766C126.578 14.4609 126.848 13.9062 127.059 13.3125C127.27 12.7188 127.426 12.1016 127.527 11.4609C127.629 10.8203 127.68 10.1836 127.68 9.55078Z" fill="#04332D"/>
</svg>
