<svg width="151" height="194" viewBox="0 0 151 194" fill="none" xmlns="http://www.w3.org/2000/svg">
<path d="M19.0039 156.574C20.0664 156.574 21 156.762 21.8047 157.137C22.6094 157.504 23.3047 158.004 23.8906 158.637C24.4766 159.262 24.9648 159.988 25.3555 160.816C25.7539 161.637 26.0703 162.5 26.3047 163.406C26.5391 164.305 26.7031 165.219 26.7969 166.148C26.8984 167.07 26.9492 167.945 26.9492 168.773C26.9492 169.5 26.9023 170.195 26.8086 170.859C26.7148 171.523 26.6133 172.117 26.5039 172.641C26.3711 173.25 26.2227 173.824 26.0586 174.363L22.5078 173.73C22.7344 173.191 22.9453 172.578 23.1406 171.891C23.3438 171.203 23.5234 170.5 23.6797 169.781C22.7344 169.695 21.7891 169.641 20.8438 169.617C19.9062 169.594 18.9727 169.582 18.043 169.582C17.3164 169.582 16.5898 169.586 15.8633 169.594C15.1367 169.602 14.4062 169.629 13.6719 169.676C13.8281 170.34 14.0117 171.004 14.2227 171.668C14.4336 172.332 14.6758 173.012 14.9492 173.707L11.2461 174.387C11.0742 174.027 10.918 173.609 10.7773 173.133C10.6602 172.727 10.5508 172.234 10.4492 171.656C10.3555 171.07 10.3086 170.41 10.3086 169.676C10.3086 168.715 10.3477 167.727 10.4258 166.711C10.5117 165.688 10.6641 164.691 10.8828 163.723C11.1094 162.754 11.4219 161.836 11.8203 160.969C12.2266 160.102 12.75 159.344 13.3906 158.695C14.0391 158.039 14.8203 157.523 15.7344 157.148C16.6562 156.766 17.7461 156.574 19.0039 156.574ZM13.168 164.906C13.168 165.555 13.1914 166.184 13.2383 166.793C13.2852 167.395 13.3594 167.988 13.4609 168.574C14.2422 168.621 15.0195 168.648 15.793 168.656C16.5742 168.664 17.3633 168.668 18.1602 168.668C19.1055 168.668 20.0547 168.664 21.0078 168.656C21.9688 168.641 22.9336 168.598 23.9023 168.527C24.043 167.66 24.1133 166.844 24.1133 166.078C24.1133 165.523 24.0703 164.934 23.9844 164.309C23.9062 163.684 23.7773 163.066 23.5977 162.457C23.418 161.84 23.1836 161.25 22.8945 160.688C22.6133 160.125 22.2656 159.633 21.8516 159.211C21.4375 158.781 20.957 158.441 20.4102 158.191C19.8711 157.934 19.2578 157.805 18.5703 157.805C17.9375 157.805 17.3672 157.906 16.8594 158.109C16.3516 158.312 15.8945 158.59 15.4883 158.941C15.0898 159.293 14.7422 159.703 14.4453 160.172C14.1562 160.633 13.918 161.129 13.7305 161.66C13.543 162.184 13.4023 162.723 13.3086 163.277C13.2148 163.832 13.168 164.375 13.168 164.906ZM46.4609 157.301C46.4609 157.301 46.4609 157.457 46.4609 157.77C46.4609 158.082 46.4531 158.512 46.4375 159.059C46.4297 159.605 46.4141 160.25 46.3906 160.992C46.3672 161.727 46.332 162.523 46.2852 163.383C46.2461 164.242 46.1953 165.137 46.1328 166.066C46.0703 166.996 45.9883 167.926 45.8867 168.855C45.793 169.777 45.6836 170.68 45.5586 171.562C45.4336 172.438 45.2852 173.25 45.1133 174L42.875 174.094C42.4844 173.508 42.0469 172.844 41.5625 172.102C41.0781 171.359 40.5703 170.582 40.0391 169.77C39.5156 168.949 38.9805 168.117 38.4336 167.273C37.8945 166.422 37.375 165.598 36.875 164.801C35.6953 162.934 34.4805 161.008 33.2305 159.023C33.1914 161.148 33.1641 163.172 33.1484 165.094C33.1406 165.914 33.1367 166.75 33.1367 167.602C33.1367 168.453 33.1367 169.273 33.1367 170.062C33.1445 170.852 33.1562 171.586 33.1719 172.266C33.1953 172.945 33.2227 173.523 33.2539 174L30.7578 174.316C30.6328 173.66 30.5273 172.914 30.4414 172.078C30.3555 171.242 30.2812 170.363 30.2188 169.441C30.1641 168.52 30.1211 167.582 30.0898 166.629C30.0586 165.668 30.0352 164.734 30.0195 163.828C29.9883 161.711 29.9883 159.527 30.0195 157.277L34.6953 156.914L43.0742 171.457C43.1602 170.441 43.2109 169.352 43.2266 168.188C43.2422 167.016 43.2266 165.809 43.1797 164.566C43.1406 163.324 43.0703 162.066 42.9688 160.793C42.8672 159.52 42.7422 158.266 42.5938 157.031L46.4609 157.301ZM53.3164 157.008L52.7188 173.977L50.3516 174.023L49.8711 157.219L53.3164 157.008ZM55.7539 173.766C55.8398 173.031 55.957 172.203 56.1055 171.281C56.2617 170.359 56.4414 169.395 56.6445 168.387C56.8555 167.371 57.082 166.34 57.3242 165.293C57.5742 164.238 57.8359 163.215 58.1094 162.223C58.3906 161.223 58.6797 160.277 58.9766 159.387C59.2734 158.496 59.5742 157.703 59.8789 157.008L62.5859 156.844C62.8203 157.297 63.0703 157.824 63.3359 158.426C63.6094 159.027 63.8906 159.676 64.1797 160.371C64.4766 161.059 64.7773 161.781 65.082 162.539C65.3867 163.297 65.6875 164.066 65.9844 164.848C66.2812 165.621 66.5703 166.391 66.8516 167.156C67.1328 167.922 67.3984 168.66 67.6484 169.371C67.8047 168.559 67.9922 167.652 68.2109 166.652C68.4297 165.645 68.6758 164.602 68.9492 163.523C69.2305 162.438 69.5352 161.34 69.8633 160.23C70.1914 159.113 70.543 158.039 70.918 157.008L74.1055 156.844C74.5742 158.086 75.0781 159.539 75.6172 161.203C76.0781 162.633 76.6016 164.375 77.1875 166.43C77.7812 168.484 78.3945 170.84 79.0273 173.496L74.9492 174.34C74.9414 174.012 74.9141 173.598 74.8672 173.098C74.8281 172.59 74.7695 172.027 74.6914 171.41C74.6211 170.793 74.5352 170.133 74.4336 169.43C74.332 168.719 74.2188 167.992 74.0938 167.25C73.9766 166.508 73.8438 165.762 73.6953 165.012C73.5547 164.254 73.4023 163.523 73.2383 162.82C73.082 162.109 72.9141 161.438 72.7344 160.805C72.5625 160.164 72.3867 159.586 72.207 159.07C71.9336 159.828 71.6758 160.609 71.4336 161.414C71.1914 162.211 70.9648 163.008 70.7539 163.805C70.5508 164.602 70.3594 165.383 70.1797 166.148C70.0078 166.914 69.8516 167.637 69.7109 168.316C69.3828 169.918 69.0977 171.484 68.8555 173.016L66.0664 173.379C66.0664 173.387 66 173.191 65.8672 172.793C65.7422 172.387 65.5625 171.844 65.3281 171.164C65.0938 170.477 64.8164 169.676 64.4961 168.762C64.1758 167.848 63.8281 166.883 63.4531 165.867C63.0781 164.852 62.6797 163.809 62.2578 162.738C61.8438 161.668 61.4258 160.637 61.0039 159.645C60.6758 160.676 60.3945 161.789 60.1602 162.984C59.9258 164.18 59.7266 165.414 59.5625 166.688C59.4062 167.961 59.2773 169.25 59.1758 170.555C59.0742 171.852 58.9961 173.113 58.9414 174.34L55.7539 173.766ZM99.2773 165.551C99.2773 166.449 99.1641 167.301 98.9375 168.105C98.7109 168.902 98.3906 169.641 97.9766 170.32C97.5625 171 97.0664 171.609 96.4883 172.148C95.9102 172.688 95.2695 173.145 94.5664 173.52C93.8633 173.895 93.1094 174.184 92.3047 174.387C91.5 174.59 90.6641 174.691 89.7969 174.691C88.4453 174.691 87.1992 174.473 86.0586 174.035C84.9258 173.605 83.9453 172.992 83.1172 172.195C82.2969 171.398 81.6562 170.438 81.1953 169.312C80.7344 168.188 80.5039 166.934 80.5039 165.551C80.5039 164.668 80.6133 163.828 80.832 163.031C81.0508 162.234 81.3594 161.5 81.7578 160.828C82.1562 160.148 82.6367 159.535 83.1992 158.988C83.7617 158.441 84.3867 157.98 85.0742 157.605C85.7695 157.223 86.5117 156.93 87.3008 156.727C88.0977 156.516 88.9297 156.41 89.7969 156.41C90.6641 156.41 91.5 156.512 92.3047 156.715C93.1172 156.91 93.875 157.195 94.5781 157.57C95.2812 157.945 95.9219 158.402 96.5 158.941C97.0781 159.48 97.5703 160.09 97.9766 160.77C98.3906 161.449 98.7109 162.191 98.9375 162.996C99.1641 163.793 99.2773 164.645 99.2773 165.551ZM96.0547 165.551C96.0547 164.934 96 164.309 95.8906 163.676C95.7891 163.035 95.6289 162.422 95.4102 161.836C95.1914 161.242 94.9141 160.688 94.5781 160.172C94.25 159.648 93.8555 159.195 93.3945 158.812C92.9414 158.422 92.4258 158.117 91.8477 157.898C91.2695 157.672 90.625 157.559 89.9141 157.559C89.2031 157.559 88.5586 157.672 87.9805 157.898C87.4023 158.125 86.8867 158.434 86.4336 158.824C85.9805 159.207 85.5859 159.66 85.25 160.184C84.9141 160.699 84.6367 161.254 84.418 161.848C84.1992 162.441 84.0352 163.055 83.9258 163.688C83.8242 164.32 83.7734 164.941 83.7734 165.551C83.7734 166.199 83.8203 166.848 83.9141 167.496C84.0078 168.145 84.1562 168.766 84.3594 169.359C84.5625 169.945 84.8242 170.496 85.1445 171.012C85.4727 171.52 85.8633 171.961 86.3164 172.336C86.7695 172.711 87.293 173.008 87.8867 173.227C88.4883 173.438 89.1641 173.543 89.9141 173.543C90.6406 173.543 91.2969 173.434 91.8828 173.215C92.4688 172.996 92.9883 172.695 93.4414 172.312C93.9023 171.93 94.2969 171.484 94.625 170.977C94.9531 170.461 95.2227 169.906 95.4336 169.312C95.6445 168.719 95.8008 168.102 95.9023 167.461C96.0039 166.82 96.0547 166.184 96.0547 165.551ZM120.09 165.551C120.09 166.449 119.977 167.301 119.75 168.105C119.523 168.902 119.203 169.641 118.789 170.32C118.375 171 117.879 171.609 117.301 172.148C116.723 172.688 116.082 173.145 115.379 173.52C114.676 173.895 113.922 174.184 113.117 174.387C112.312 174.59 111.477 174.691 110.609 174.691C109.258 174.691 108.012 174.473 106.871 174.035C105.738 173.605 104.758 172.992 103.93 172.195C103.109 171.398 102.469 170.438 102.008 169.312C101.547 168.188 101.316 166.934 101.316 165.551C101.316 164.668 101.426 163.828 101.645 163.031C101.863 162.234 102.172 161.5 102.57 160.828C102.969 160.148 103.449 159.535 104.012 158.988C104.574 158.441 105.199 157.98 105.887 157.605C106.582 157.223 107.324 156.93 108.113 156.727C108.91 156.516 109.742 156.41 110.609 156.41C111.477 156.41 112.312 156.512 113.117 156.715C113.93 156.91 114.688 157.195 115.391 157.57C116.094 157.945 116.734 158.402 117.312 158.941C117.891 159.48 118.383 160.09 118.789 160.77C119.203 161.449 119.523 162.191 119.75 162.996C119.977 163.793 120.09 164.645 120.09 165.551ZM116.867 165.551C116.867 164.934 116.812 164.309 116.703 163.676C116.602 163.035 116.441 162.422 116.223 161.836C116.004 161.242 115.727 160.688 115.391 160.172C115.062 159.648 114.668 159.195 114.207 158.812C113.754 158.422 113.238 158.117 112.66 157.898C112.082 157.672 111.438 157.559 110.727 157.559C110.016 157.559 109.371 157.672 108.793 157.898C108.215 158.125 107.699 158.434 107.246 158.824C106.793 159.207 106.398 159.66 106.062 160.184C105.727 160.699 105.449 161.254 105.23 161.848C105.012 162.441 104.848 163.055 104.738 163.688C104.637 164.32 104.586 164.941 104.586 165.551C104.586 166.199 104.633 166.848 104.727 167.496C104.82 168.145 104.969 168.766 105.172 169.359C105.375 169.945 105.637 170.496 105.957 171.012C106.285 171.52 106.676 171.961 107.129 172.336C107.582 172.711 108.105 173.008 108.699 173.227C109.301 173.438 109.977 173.543 110.727 173.543C111.453 173.543 112.109 173.434 112.695 173.215C113.281 172.996 113.801 172.695 114.254 172.312C114.715 171.93 115.109 171.484 115.438 170.977C115.766 170.461 116.035 169.906 116.246 169.312C116.457 168.719 116.613 168.102 116.715 167.461C116.816 166.82 116.867 166.184 116.867 165.551ZM140.902 165.551C140.902 166.449 140.789 167.301 140.562 168.105C140.336 168.902 140.016 169.641 139.602 170.32C139.188 171 138.691 171.609 138.113 172.148C137.535 172.688 136.895 173.145 136.191 173.52C135.488 173.895 134.734 174.184 133.93 174.387C133.125 174.59 132.289 174.691 131.422 174.691C130.07 174.691 128.824 174.473 127.684 174.035C126.551 173.605 125.57 172.992 124.742 172.195C123.922 171.398 123.281 170.438 122.82 169.312C122.359 168.188 122.129 166.934 122.129 165.551C122.129 164.668 122.238 163.828 122.457 163.031C122.676 162.234 122.984 161.5 123.383 160.828C123.781 160.148 124.262 159.535 124.824 158.988C125.387 158.441 126.012 157.98 126.699 157.605C127.395 157.223 128.137 156.93 128.926 156.727C129.723 156.516 130.555 156.41 131.422 156.41C132.289 156.41 133.125 156.512 133.93 156.715C134.742 156.91 135.5 157.195 136.203 157.57C136.906 157.945 137.547 158.402 138.125 158.941C138.703 159.48 139.195 160.09 139.602 160.77C140.016 161.449 140.336 162.191 140.562 162.996C140.789 163.793 140.902 164.645 140.902 165.551ZM137.68 165.551C137.68 164.934 137.625 164.309 137.516 163.676C137.414 163.035 137.254 162.422 137.035 161.836C136.816 161.242 136.539 160.688 136.203 160.172C135.875 159.648 135.48 159.195 135.02 158.812C134.566 158.422 134.051 158.117 133.473 157.898C132.895 157.672 132.25 157.559 131.539 157.559C130.828 157.559 130.184 157.672 129.605 157.898C129.027 158.125 128.512 158.434 128.059 158.824C127.605 159.207 127.211 159.66 126.875 160.184C126.539 160.699 126.262 161.254 126.043 161.848C125.824 162.441 125.66 163.055 125.551 163.688C125.449 164.32 125.398 164.941 125.398 165.551C125.398 166.199 125.445 166.848 125.539 167.496C125.633 168.145 125.781 168.766 125.984 169.359C126.188 169.945 126.449 170.496 126.77 171.012C127.098 171.52 127.488 171.961 127.941 172.336C128.395 172.711 128.918 173.008 129.512 173.227C130.113 173.438 130.789 173.543 131.539 173.543C132.266 173.543 132.922 173.434 133.508 173.215C134.094 172.996 134.613 172.695 135.066 172.312C135.527 171.93 135.922 171.484 136.25 170.977C136.578 170.461 136.848 169.906 137.059 169.312C137.27 168.719 137.426 168.102 137.527 167.461C137.629 166.82 137.68 166.184 137.68 165.551Z" fill="#04332D"/>
<g clip-path="url(#clip0_6_206)">
<path d="M129.915 124.038C157.552 96.4029 157.552 51.5978 129.915 23.9629C102.277 -3.67207 57.468 -3.67206 29.8305 23.9629C2.19307 51.5978 2.19307 96.4029 29.8305 124.038C57.468 151.673 102.277 151.673 129.915 124.038Z" fill="#1B293B"/>
<path d="M122.251 116.375C145.656 92.972 145.656 55.0287 122.251 31.626C98.8459 8.22337 60.8992 8.22337 37.4944 31.6261C14.0896 55.0287 14.0896 92.972 37.4944 116.375C60.8992 139.777 98.8459 139.777 122.251 116.375Z" fill="#C9AE5B"/>
<path d="M79.8709 14.0718C91.725 14.0718 103.313 17.5866 113.169 24.1718C123.026 30.757 130.708 40.1168 135.244 51.0676C139.781 62.0184 140.967 74.0684 138.655 85.6937C136.342 97.319 130.634 107.998 122.252 116.379C113.87 124.76 103.19 130.468 91.5637 132.78C79.9373 135.093 67.8863 133.906 56.9345 129.37C45.9827 124.834 36.622 117.153 30.0362 107.297C23.4504 97.4418 19.9353 85.855 19.9353 74.0019C19.9348 66.1316 21.4847 58.3383 24.4966 51.067C27.5084 43.7958 31.9232 37.1889 37.4889 31.6238C43.0545 26.0587 49.662 21.6443 56.9339 18.6327C64.2058 15.6211 71.9999 14.0713 79.8709 14.0718ZM79.8709 12.9262C67.7922 12.9273 55.985 16.5095 45.9422 23.2197C35.8993 29.93 28.0718 39.4671 23.4491 50.6252C18.8265 61.7833 17.6163 74.0613 19.9716 85.9071C22.327 97.7528 28.142 108.634 36.6816 117.176C48.1716 128.45 63.6486 134.733 79.7468 134.658C95.8451 134.583 111.263 128.155 122.647 116.774C134.031 105.392 140.461 89.977 140.538 73.8802C140.615 57.7835 134.334 42.3071 123.06 30.8166C117.402 25.1273 110.671 20.6166 103.258 17.5457C95.8442 14.4748 87.8952 12.9047 79.8709 12.9262Z" fill="#E2D8A7"/>
<mask id="mask0_6_206" style="mask-type:luminance" maskUnits="userSpaceOnUse" x="0" y="8" width="140" height="126">
<path d="M139.803 74.0019C139.794 85.1617 136.671 96.0976 130.784 105.579C124.897 115.06 116.481 122.71 106.482 127.668C96.4828 132.626 85.2984 134.695 74.1873 133.642C63.0763 132.589 52.4797 128.456 43.5902 121.708C43.5902 121.708 27.8062 132.103 19.1829 124.973C-0.763819 108.481 0.381885 52.9649 0.381885 40.2182C0.381885 22.744 17.2887 11.1085 34.3711 9.0426C49.6472 7.19818 64.2472 14.0718 79.8708 14.0718C87.7415 14.0718 95.5351 15.6219 102.807 18.6338C110.078 21.6456 116.685 26.0601 122.25 31.6251C127.816 37.1902 132.23 43.7969 135.242 51.0679C138.253 58.339 139.803 66.1319 139.803 74.0019Z" fill="white"/>
</mask>
<g mask="url(#mask0_6_206)">
<path d="M57.1553 110.963C57.1553 110.963 51.3733 126.734 37.1743 133.928C37.1743 133.928 46.5767 150.012 82.6931 153.785C118.809 157.558 139.497 125.455 149.969 107.518C149.969 107.518 144.748 89.1162 131.58 73.8721C116.235 56.1076 107.792 52.4876 95.2156 50.6622L57.1553 110.963Z" fill="#1B293B"/>
<path d="M144.118 107.484C144.118 107.484 143.221 109.084 141.54 111.658C136.037 120.078 122.151 138.95 103.675 146.522C99.8733 148.13 95.834 149.104 91.7174 149.405C58.1903 151.582 49.5975 136.899 49.5975 136.899C49.5975 136.899 60.3709 123.373 62.1544 112.685C62.7693 109.115 52.4923 104.402 51.5758 101.668C51.5758 101.668 59.8668 95.0886 69.5633 86.7753C77.3235 80.1156 85.9851 72.3522 92.0153 65.9636C95.7121 62.038 98.4198 58.628 99.3478 56.31C99.3478 56.31 103.549 57.5091 109.361 60.7626C116.089 64.5213 122.096 69.4435 127.104 75.3002C139.551 89.9105 144.118 107.484 144.118 107.484Z" fill="#838891"/>
<path d="M144.118 107.484C144.118 107.484 143.221 109.084 141.54 111.658C135.525 88.2608 116.51 74.7427 116.51 74.7427C122.075 77.664 129.361 83.3729 129.361 83.3729C121.888 71.9895 106.68 62.3703 106.68 62.3703L109.354 60.7779C116.081 64.5366 122.089 69.4587 127.097 75.3155C139.551 89.9105 144.118 107.484 144.118 107.484Z" fill="white"/>
<path d="M103.671 146.537C99.8695 148.145 95.8302 149.119 91.7136 149.421C58.1865 151.597 52.0837 135.62 52.0837 135.62C52.0837 135.62 59.1527 128.196 60.9361 112.654C56.9262 115.66 41.6081 118.665 30.8385 118.558C22.5703 118.466 21.058 110.779 19.7634 107.717C19.2716 106.464 18.9194 105.16 18.7131 103.83L28.9634 98.6552C34.6346 99.0027 39.5802 94.3936 41.1613 88.4212C42.7424 82.4488 44.1172 77.5533 48.1997 70.5078C48.1997 70.5078 49.5173 72.4172 49.2003 73.4177C48.8604 74.5022 49.7999 75.9456 51.7247 73.4788C53.9855 70.5728 61.1768 60.8772 66.8442 59.2542C66.6723 59.3573 65.6679 62.4008 65.6679 62.4008C68.3794 61.4309 73.1073 63.0767 73.1073 63.0767C68.4825 63.8672 65.7519 67.6897 66.6418 67.6973C66.6418 67.6973 68.853 74.2425 66.214 79.1991C62.9297 85.3624 49.4791 86.8632 44.6595 91.3043C39.5726 95.9974 36.0667 99.3693 36.0858 101.485C36.1049 103.6 39.7903 104.433 39.7903 104.433C39.7903 104.433 47.6498 104.131 54.9479 97.0399C62.2461 89.9487 66.5081 88.6847 66.5081 88.6847C66.5081 88.6847 67.5507 89.1887 70.0865 90.4871C73.5962 92.2628 78.6373 91.1172 82.1393 89.0322C88.2803 85.3739 88.1657 77.6793 88.1275 77.1561C88.2345 77.2974 89.8155 79.371 91.3851 83.3118C94.2876 90.5902 98.8513 101.596 86.6801 143.505C86.6801 143.505 104.381 131.125 104.003 94.279C104.003 94.279 112.432 128.83 103.671 146.537Z" fill="#50535A"/>
<path d="M43.3611 67.1359C39.4733 66.4219 26.8438 64.3636 15.1424 55.1072C3.44091 45.8507 2.29139 39.8669 2.0317 37.9041C1.52759 34.4444 3.69679 33.4859 8.3789 35.7656C12.618 37.8277 27.3479 44.2163 39.5611 44.8235C51.9271 45.4345 53.6915 45.1786 53.6418 52.079C53.5922 58.9793 52.8475 66.5899 49.1621 67.6744C45.4768 68.7589 43.3611 67.1359 43.3611 67.1359Z" fill="#1B293B"/>
<path d="M44.1249 49.1691C40.7718 49.7037 31.1173 48.3214 23.0477 45.8927C14.9782 43.464 6.46558 39.2253 6.46558 39.2253C6.46558 39.2253 8.90975 46.0416 18.9538 52.709C28.9978 59.3764 43.4756 62.5115 43.4756 62.5115L44.1249 49.1691Z" fill="#A59688"/>
<path d="M43.9186 53.1749L44.1134 49.1691C40.7603 49.7037 31.1058 48.3214 23.0363 45.8927C19.0817 44.6554 15.2015 43.1917 11.415 41.5089C12.3812 42.139 24.4417 49.9596 43.9186 53.1749Z" fill="white"/>
<path d="M38.8126 53.6713C34.6229 53.7404 30.4463 53.1857 26.4199 52.0255C22.7211 51.0483 19.0914 49.8262 15.5548 48.3672C14.1209 47.7703 12.7188 47.0999 11.3539 46.3586C13.6294 48.7627 16.1803 50.8904 18.9538 52.6976C28.9978 59.365 43.4756 62.5001 43.4756 62.5001L43.9186 53.1749C42.2286 53.4466 40.5233 53.6124 38.8126 53.6713Z" fill="#625C58"/>
<path d="M88.1123 77.137L110.977 62.6261L78.3776 41.4554C72.8477 39.2788 64.0296 40.3098 61.8298 43.296C61.8298 43.296 57.7855 41.3676 52.0761 42.685C50.4608 43.094 48.9088 43.7209 47.4627 44.5485C46.5499 44.0483 45.0453 43.6588 42.8111 44.4569C38.7782 45.8927 37.1895 47.4775 36.5212 51.1166C35.8529 54.7558 34.9363 57.3563 31.6596 61.8089C28.3829 66.2615 27.8788 70.0725 28.3676 74.357C28.8565 78.6416 24.4417 83.7471 22.4787 85.8436C20.5157 87.94 15.6045 92.3888 14.898 98.6285C14.1914 104.868 16.6853 117.535 22.979 120.082C38.2169 126.245 49.9183 116.962 56.9682 114.491C64.0181 112.021 69.1623 110.21 75.3224 109.909C81.4825 109.607 90.7589 100.526 91.3241 91.9611C91.661 86.8166 90.5483 81.6808 88.1123 77.137Z" fill="#1B293B"/>
<path d="M74.5548 42.9714C71.7516 46.6259 72.3512 52.2393 77.0142 57.9062C81.6772 63.5731 89.1854 60.8733 95.5097 60.2624C101.834 59.6514 110.102 48.497 112.077 38.7289C114.051 28.9608 112.531 23.7254 103.801 20.5215C95.0705 17.3176 82.5671 20.2771 72.4199 19.8036C58.3889 19.1544 53.2523 16.0995 44.2814 12.93C37.6669 10.5815 35.1158 9.82543 34.5086 12.6436C33.9014 15.4618 34.2833 18.9291 42.0893 26.8834C50.3689 35.3188 62.922 40.2144 65.4655 40.8597C68.009 41.5051 74.5548 42.9714 74.5548 42.9714Z" fill="#1B293B"/>
<path d="M91.5799 79.7834C91.6214 80.963 91.5562 82.1439 91.3852 83.3118C90.6214 89.1277 87.5662 96.7192 81.7918 101.072C74.719 106.38 66.7258 105.361 59.0152 107.324C56.1815 108.053 54.1192 109.668 51.8049 111.398C47.7988 114.403 41.6082 118.654 30.8385 118.558C22.5704 118.466 21.058 110.779 19.7634 107.717C19.2716 106.464 18.9194 105.16 18.7132 103.83C17.9723 99.3311 18.1823 92.7783 23.0668 89.6012C29.7883 85.2212 31.8697 73.1122 31.8697 73.1122C31.4889 71.3207 31.5649 69.4622 32.0908 67.7078C32.6167 65.9535 33.5755 64.3596 34.8791 63.0729C39.4046 58.4141 38.6981 50.9677 40.768 49.0584C41.7571 48.1381 43.4795 48.2374 43.4795 48.2374C41.6005 50.2613 42.4063 52.8427 42.4063 52.8427C42.4063 52.8427 44.3158 49.3792 51.0526 47.676C53.8863 46.962 59.4964 47.7257 59.4964 47.7257C59.527 50.2689 61.4938 52.2814 61.4938 52.2814C61.4938 52.2814 65.2135 45.2665 68.9714 43.1509C72.7293 41.0354 75.2346 44.4722 75.2346 44.4722C72.9088 46.7634 74.0469 51.4183 76.5178 56.9439C78.9887 62.4696 85.3435 63.0958 85.3435 63.0958C89.0556 62.8591 91.114 64.8066 92 65.9674C92.2097 66.2209 92.3916 66.4961 92.5423 66.7885C98.4962 70.0267 106.963 69.5494 106.963 69.5494C103.258 75.3843 91.5799 79.7834 91.5799 79.7834Z" fill="#838891"/>
<path d="M88.1275 77.1561C88.1657 77.6793 88.5514 86.3209 82.399 89.9868C78.9084 92.0756 75.9907 92.4231 70.0674 90.4833C67.3597 89.5935 66.4928 88.677 66.4928 88.677C66.4928 88.677 62.2308 89.9448 54.9327 97.0399C47.898 103.879 40.3402 104.402 39.8094 104.433C35.1731 102.329 34.5888 99.354 37.6898 99.7741C39.5993 100.03 41.8296 97.101 42.8188 93.7138C46.6378 80.612 54.7723 88.8107 61.8527 84.3543C69.4907 79.539 66.0078 68.0677 66.0078 68.0677C65.118 68.0677 68.4634 63.8672 73.0921 63.0767C73.0921 63.0767 68.368 61.4347 65.6526 62.4008C66.2512 61.3769 67.0392 60.4762 67.9746 59.7468C59.4849 60.7931 49.0361 67.1589 47.1113 75.3613C46.3972 78.4163 42.834 84.3276 41.146 88.425C38.7935 94.153 34.6193 99.0027 28.9481 98.6552L18.7131 103.829C18.9144 105.159 19.2615 106.463 19.7481 107.717C21.058 110.772 22.5703 118.466 30.8232 118.558C41.5928 118.665 47.7835 114.403 51.7896 111.398C54.1039 109.668 56.1662 108.053 58.9999 107.324C66.7105 105.361 74.7037 106.38 81.7765 101.072C87.5585 96.7191 90.587 89.1276 91.3699 83.3118C89.8155 79.3709 88.2192 77.2974 88.1275 77.1561Z" fill="#50535A"/>
<path d="M57.9573 70.4124C51.4841 76.2931 52.752 75.2277 51.7514 79.8101C51.7514 79.8101 52.6871 81.7767 56.9415 81.9791C62.2308 82.2311 64.9614 77.0683 65.6756 73.6811C66.4394 69.9923 66.1453 66.9565 65.3204 65.6619C62.6147 66.817 60.1249 68.4233 57.9573 70.4124Z" fill="white"/>
<path d="M46.5499 72.6997C46.5499 72.6997 44.713 76.7857 47.7835 79.2106C46.7472 81.79 45.9445 84.4572 45.3851 87.1801C45.3851 87.1801 49.8343 80.9862 50.9609 80.3294C50.9609 80.3294 57.9459 82.9223 62.7425 77.0568C65.7328 73.3986 66.0231 68.0677 66.0231 68.0677C66.0231 68.0677 66.6838 66.0247 73.1417 63.0843C73.1417 63.0843 66.89 61.6867 59.7523 66.7579C52.6145 71.8291 49.8457 76.717 49.8457 76.717C49.0078 76.3709 48.2684 75.823 47.6934 75.1222C47.1184 74.4213 46.7256 73.5891 46.5499 72.6997Z" fill="#1B293B"/>
<path d="M52.5191 77.8435C54.547 75.3346 59.9012 70.5307 61.0317 69.8816C61.0546 69.8243 62.4218 73.158 60.4397 75.9227C57.2852 80.3256 52.5191 77.8435 52.5191 77.8435Z" fill="#E2D8A7"/>
<path d="M59.4926 71.1685C60.012 72.2682 59.6683 73.6009 58.3469 74.4792C57.0255 75.3575 54.5279 75.3346 54.5279 75.3346C55.2227 74.5735 56.0046 73.8968 56.8575 73.3184C57.8007 72.6851 58.6829 71.9654 59.4926 71.1685Z" fill="white"/>
<path d="M56.8765 73.3184C56.1127 73.9981 56.0631 74.441 56.6398 74.7084C57.2164 74.9757 58.8013 74.1356 58.8013 74.1356C58.3063 74.8201 57.6268 75.3498 56.8422 75.663C54.2032 76.8621 53.4814 76.0449 53.4814 76.0449C53.754 75.2596 54.2809 74.5877 54.9785 74.1356C56.1624 73.3451 56.8765 73.3184 56.8765 73.3184Z" fill="#1B293B"/>
<path d="M101.181 51.8231C96.3041 57.9712 88.139 59.3688 83.9648 57.3754C79.7906 55.3821 77.4725 50.6622 78.8206 43.7543L80.6347 42.9103C84.1401 42.9462 87.6165 42.272 90.8543 40.9284C95.5059 38.9466 97.5643 36.1284 97.7286 35.8611C97.7286 35.8611 97.6827 35.8611 97.6484 35.8878C93.0827 37.1613 88.3753 37.8566 83.6364 37.9575C76.4261 38.095 69.2005 37.1709 62.5975 34.6735C46.5576 28.5636 40.7603 19.7807 38.9196 15.8933C38.6175 15.2769 38.3622 14.6386 38.1558 13.9839C38.5377 14.2207 54.2529 24.0843 72.9088 24.2371C91.7785 24.3898 103.965 21.2318 107.734 28.7011C111.504 36.1704 106.039 45.6712 101.181 51.8231Z" fill="#A59688"/>
<path d="M72.8897 24.2218C64.3924 24.1531 56.5214 22.0643 50.411 19.7883C52.2288 20.7401 54.1051 21.5755 56.0288 22.2896C58.1636 23.0227 65.7787 26.7154 83.8388 26.196C86.1111 26.1311 89.3191 26.1311 91.5952 26.0968C103.094 25.9326 106.489 28.8577 108.536 32.4701C108.678 32.729 108.806 32.9955 108.918 33.2682C108.829 31.6741 108.416 30.1149 107.704 28.6858C103.946 21.2165 91.7594 24.3745 72.8897 24.2218Z" fill="white"/>
<path d="M78.9695 47.5004C78.7862 47.4546 78.5876 47.4164 78.4158 47.3782C78.3967 52.3081 80.5239 55.7792 83.9152 57.3678C88.1161 59.3611 96.2849 57.9712 101.169 51.8193C103.549 48.8178 106.05 45.0106 107.559 41.0316C100.822 49.6426 89.0823 50.1696 78.9695 47.5004Z" fill="#625C58"/>
<path d="M24.3768 99.0333C21.3865 98.5063 20.3744 95.6614 16.1926 97.8877C13.7981 99.1516 12.408 102.692 14.4435 106.644C16.479 110.596 18.4382 111.833 22.3985 113.01C26.3588 114.186 31.545 115.683 35.8911 112.727C40.2371 109.771 41.146 104.777 39.1563 101.416C37.1666 98.0557 31.1364 98.2275 29.1009 98.6208C27.0653 99.0142 25.8738 99.2853 24.3768 99.0333Z" fill="#1B293B"/>
<path d="M18.1518 106.159C17.0061 105.013 17.4911 103.486 18.4726 103.902C19.4541 104.318 20.0345 106.625 20.4355 107.931C20.8365 109.237 22.9866 109.741 23.7237 109.317C24.4608 108.893 26.0762 107.083 27.4473 105.697C28.8183 104.311 31.0562 104.498 31.694 105.445C32.3318 106.392 31.8964 105.605 31.8964 105.605C31.8964 105.605 30.2351 105.83 29.4522 106.575C28.6693 107.32 31.3617 106.594 31.2281 107.755C31.0944 108.916 30.2008 110.233 30.2008 110.233C30.2008 110.233 32.6449 111.173 34.1725 109.019C35.7001 106.865 35.5741 104.215 33.4355 102.401C31.2968 100.587 25.4996 102.527 23.7352 102.21C21.9708 101.893 20.3974 99.5679 18.4076 100.862C16.4179 102.157 16.3607 104.337 16.9793 105.193C17.2599 105.629 17.6698 105.967 18.1518 106.159Z" fill="#625C58"/>
<path d="M20.0575 102.959C20.7487 103.371 20.9091 104.566 24.3462 104.532C26.1182 104.513 28.3447 103.455 30.1396 103.486C33.0727 103.539 34.9707 105.361 34.7721 107.938C35.2039 107.001 35.3069 105.946 35.0643 104.943C34.8217 103.94 34.2478 103.049 33.4355 102.413C31.293 100.595 25.4995 102.539 23.7352 102.222C21.9708 101.905 20.3973 99.5793 18.4076 100.874C16.6165 102.019 16.3988 103.906 16.8189 104.895C16.9488 102.52 19.0951 102.39 20.0575 102.959Z" fill="#A59688"/>
<path d="M17.8806 110.394C20.0193 112.685 21.0466 112.425 23.0668 112.395C25.5439 112.378 28.0125 112.684 30.4108 113.304C35.8491 114.778 38.3123 114.174 41.211 111.688C43.9798 109.317 46.9128 106.724 49.9947 102.886C54.1651 97.6738 55.5781 96.4404 56.9682 94.7716C58.7288 92.6637 60.7032 90.7468 62.1774 90.7773C63.0901 90.8002 64.0487 91.69 64.6979 92.8814C66.4814 96.1654 66.1415 100.839 64.9194 101.836C62.8953 103.49 61.2837 101.939 53.3631 105.617C48.6924 107.782 42.7424 117.153 33.5462 116.233C26.8209 115.56 27.0539 113.701 23.1547 114.323C21.207 114.636 18.9538 113.349 18.1327 112.292C17.3116 111.234 17.8806 110.394 17.8806 110.394Z" fill="#1B293B"/>
<path d="M57.7969 93.8666C57.7969 93.8666 59.6377 91.2661 62.2499 89.941C64.8621 88.616 66.5157 88.6847 66.5157 88.6847C66.5157 88.6847 62.7005 92.7936 61.3944 94.7029L57.7969 93.8666Z" fill="#1B293B"/>
<path d="M42.223 133.928C42.223 133.928 48.4365 140.095 56.2999 142.451C56.2999 142.451 68.4023 127.223 70.0827 108.733L60.6192 112.143C60.6192 112.143 53.0346 128.448 42.223 133.928Z" fill="#1B293B"/>
<path d="M73.3823 108.232C73.3823 108.232 73.8941 116.889 66.9359 136.953C66.9359 136.953 76.9913 121.789 80.7263 111.016C80.7263 111.016 80.3902 117.623 79.7639 122.003C79.7639 122.003 90.3197 106.323 91.0606 90.342C91.0606 90.342 89.8729 96.4518 82.8688 102.944C80.1272 105.373 76.8904 107.178 73.3823 108.232Z" fill="#1B293B"/>
<path d="M75.5554 60.7702C77.1632 57.6389 84.3887 51.6436 92.6913 51.5138C100.994 51.384 108.517 51.109 111.825 49.2875C115.132 47.466 116.358 47.1376 116.358 47.1376C116.358 47.1376 115.743 57.1921 111.832 62.7941C107.922 68.3961 103.152 71.2525 97.2092 71.2639C91.2668 71.2754 91.8396 69.0109 91.8396 69.0109C91.8396 69.0109 85.7598 70.3665 79.0268 65.1541C77.5613 63.9659 76.3759 62.4691 75.5554 60.7702Z" fill="#1B293B"/>
<path d="M106.68 62.3588C106.115 62.9774 105.481 63.6304 104.771 64.2681C100.654 68.0257 92.5309 71.2372 92.5309 71.2372L89.6666 69.7594C89.6666 69.7594 94.8108 68.293 97.087 65.7536C99.3631 63.2142 101.429 61.1712 102.464 61.0528C102.464 61.0528 97.2512 59.6246 94.364 60.5449L91.4654 61.4805C91.4483 60.9289 91.5446 60.3796 91.7482 59.8666C91.9518 59.3537 92.2585 58.8879 92.6493 58.4981C92.6493 58.4981 84.7172 59.5253 85.122 64.0657C84.6937 63.6533 84.224 63.286 83.7204 62.9698C83.0941 62.6108 82.4334 61.6905 82.0515 59.5673C84.2016 57.7746 86.6867 56.4272 89.3624 55.6038C92.0381 54.7804 94.8508 54.4974 97.6369 54.7711C105.959 55.6227 111.637 52.7281 111.637 52.7281C111.637 52.7281 111.259 57.238 106.68 62.3588Z" fill="#838891"/>
<path d="M83.7204 62.9622C84.224 63.2784 84.6937 63.6456 85.122 64.0581C84.7172 59.5177 92.6493 58.4905 92.6493 58.4905C92.2585 58.8803 91.9518 59.346 91.7482 59.859C91.5446 60.372 91.4483 60.9212 91.4654 61.4729L94.3678 60.5449C97.255 59.6246 102.468 61.0528 102.468 61.0528C101.781 61.1368 100.631 62.0915 99.2638 63.4548C99.9627 63.4968 100.662 63.5502 101.357 63.6266C102.552 63.7641 103.747 63.9397 104.939 64.1116C105.577 63.5235 106.161 62.9278 106.68 62.3588C111.263 57.238 111.645 52.7205 111.645 52.7205C111.645 52.7205 105.966 55.615 97.6445 54.7635C94.8564 54.4903 92.0418 54.7746 89.3647 55.6001C86.6876 56.4255 84.2016 57.7754 82.0515 59.5712C82.4334 61.6829 83.0941 62.6032 83.7204 62.9622Z" fill="#50535A"/>
<path d="M99.8634 32.7336C99.8634 32.7336 99.4089 34.2191 97.6675 35.8878C93.0956 37.1629 88.3817 37.8582 83.6364 37.9575C76.4261 38.095 69.2005 37.1709 62.5975 34.6735C46.5576 28.5636 40.7603 19.7807 38.9196 15.8933C38.6175 15.2769 38.3622 14.6386 38.1558 13.9839C38.4536 14.4918 42.1314 21.8809 56.0593 26.2571C80.501 33.9327 93.8675 29.3808 93.8675 29.3808C93.8675 29.3808 92.5843 32.4816 90.1631 34.4482C93.4634 34.3586 96.7323 33.7808 99.8634 32.7336Z" fill="#625C58"/>
<path d="M52.1181 104.135C55.7461 101.359 60.8483 94.9244 61.8566 94.3096C61.8566 94.3096 62.311 94.3516 62.6204 95.5392C62.9297 96.7268 62.8571 99.4151 62.0399 99.4953C59.0763 99.7855 52.1181 104.135 52.1181 104.135Z" fill="#D3D1CA"/>
<path d="M30.6743 69.6028C30.6323 72.1155 30.8652 73.0816 32.5418 72.5508C33.5107 72.2641 34.3714 71.6935 35.0127 70.9126C35.0127 70.9126 33.0192 77.1752 30.5215 76.591C28.0239 76.0067 30.6743 69.6028 30.6743 69.6028Z" fill="#1B293B"/>
<path d="M31.0753 98.4108C32.8397 98.4452 39.733 96.2609 41.8373 93.8933C41.8373 93.8933 40.9551 100.511 36.5212 100.58C32.0873 100.649 31.0753 98.4108 31.0753 98.4108Z" fill="#1B293B"/>
<path d="M102.067 149.39C102.067 149.39 110.812 109.126 100.998 87.1801C100.998 87.1801 119.153 106.583 115.235 145.839L102.067 149.39Z" fill="#1B293B"/>
<path d="M106.68 62.3588C111.263 57.238 111.645 52.7205 111.645 52.7205C111.645 52.7205 105.966 55.615 97.6445 54.7635C93.1721 54.3152 88.6739 55.3151 84.8127 57.616C91.1904 55.7067 93.753 56.1306 97.0335 56.5392C100.907 56.9818 104.806 57.1643 108.704 57.0852C108.704 57.0852 108.987 58.5745 106.703 62.3015C106.703 62.3168 106.684 62.3435 106.68 62.3588Z" fill="white"/>
<path d="M112.13 141.142C112.13 141.142 121.498 126.371 118.821 104.792C118.821 104.792 126.459 117.924 125.814 131.851C127.158 126.256 128.806 120.739 130.752 115.324C130.752 115.324 133.719 100.332 124.507 81.9447C124.507 81.9447 138.71 93.4351 143.121 112.906C143.121 112.906 128.155 142.272 112.859 145.396L112.13 141.142Z" fill="#1B293B"/>
<path d="M77.4534 152.113C77.4534 152.113 91.3699 122.197 94.5855 101.397C94.5855 101.397 94.7574 124.847 86.0882 151.658L77.4534 152.113Z" fill="#1B293B"/>
<path d="M55.3375 31.4314C58.8433 31.6338 63.4644 31.0114 65.8971 28.3765C65.8971 28.3765 64.5413 34.3183 59.6988 34.8682C56.1968 35.3036 55.3375 31.4314 55.3375 31.4314Z" fill="#1B293B"/>
<path d="M23.8803 56.9248C27.3861 56.7034 31.9002 55.531 33.9968 52.6288C33.9968 52.6288 33.9548 58.1697 29.2193 59.3153C25.7898 60.144 23.8803 56.9248 23.8803 56.9248Z" fill="#1B293B"/>
<path d="M15.0507 51.8956C17.5942 52.0408 19.5495 52.3195 22.5513 50.5247C22.5513 50.5247 22.3489 54.3701 19.1562 54.3434C16.5974 54.3129 15.0507 51.8956 15.0507 51.8956Z" fill="#1B293B"/>
<path d="M44.522 25.6882C49.3454 26.4175 52.8322 25.4361 53.638 24.7106C53.638 24.7106 52.4159 28.1054 49.292 28.0939C48.3666 28.0803 47.4564 27.8567 46.6301 27.4399C45.8038 27.0232 45.083 26.4242 44.522 25.6882Z" fill="#1B293B"/>
<path d="M68.5322 36.5446C74.5929 34.9904 77.4457 31.714 78.58 29.5526C78.58 29.5526 78.8664 35.0706 74.6617 37.7666C71.236 39.9661 68.5322 36.5446 68.5322 36.5446Z" fill="#1B293B"/>
<path d="M80.5812 38.4883C88.4483 36.5103 92.3476 31.9279 93.8713 29.3808C93.8713 29.3808 94.2762 35.9986 88.7768 39.2521C84.3009 41.906 80.5812 38.4883 80.5812 38.4883Z" fill="#1B293B"/>
</g>
</g>
<defs>
<clipPath id="clip0_6_206">
<rect width="151" height="148" fill="white"/>
</clipPath>
</defs>
</svg>
