<svg width="105" height="54" viewBox="0 0 105 54" fill="none" xmlns="http://www.w3.org/2000/svg">
<path opacity="0.54" d="M105 42.9426C105 38.5437 81.5168 34.975 52.552 34.975C23.5872 34.975 0.104004 38.5437 0.104004 42.9426C0.104004 47.3414 23.5872 53.1479 52.552 53.1479C81.5168 53.1479 105 47.3414 105 42.9426Z" fill="#04332D"/>
<path d="M53.3732 6.68244V42.1621L45.4372 42.875C45.4372 42.875 38.4938 42.9562 36.5628 41.1019C34.7762 39.3874 32.0601 41.553 30.6435 41.1921L30.1427 37.3752L25.6761 3.34833C25.7664 3.31223 28.6358 3.01898 32.5564 2.93777C39.2923 2.78437 49.1413 3.24456 53.3732 6.68244Z" fill="white"/>
<path d="M42.8068 34.1765C40.4247 34.4111 37.2981 35.0518 34.7535 36.7121" stroke="#2B2594" stroke-width="0.605046" stroke-linecap="round" stroke-linejoin="round"/>
<path d="M44.783 3.59192C44.783 3.59192 49.9849 8.56828 50.0345 14.7402C50.0345 14.7402 51.8121 8.20283 50.5714 4.51681L44.783 3.59192Z" fill="#4E5682"/>
<path d="M36.2785 35.8639C34.9205 36.5542 33.17 37.3798 30.6841 37.3798C30.5036 37.3798 30.3232 37.3798 30.1427 37.3798L25.6761 3.3484C25.7664 3.3123 27.9275 2.99198 31.8481 2.91077C32.7324 3.98003 32.8542 4.95004 33.5535 6.16818C35.9943 10.4272 38.4802 16.7931 38.9855 22.7756C39.2743 26.1278 40.6278 33.6487 36.274 35.8594L36.2785 35.8639Z" fill="#4E5682"/>
<path d="M36.6169 44.6841C36.5087 44.7472 36.3914 44.8014 36.2786 44.8465C36.0304 44.9503 35.7687 45.027 35.498 45.0721C33.3685 45.433 30.3502 44.6435 27.1379 42.6087C23.3166 40.195 10.8373 40.3664 10.8373 40.3664C8.78453 40.5604 0.523685 38.0249 5.31958 28.0857C5.57674 27.5488 5.87 26.9939 6.20837 26.4164C12.7954 15.0876 30.7022 33.7253 32.0782 34.975C32.9264 35.7465 34.334 35.9856 34.9747 36.8157C37.5869 40.195 38.3675 43.7141 36.6169 44.6841Z" fill="white"/>
<path d="M36.2786 44.8466C36.0304 44.9503 35.7688 45.027 35.4981 45.0721C35.4078 44.824 35.3356 44.5578 35.2544 44.3548C34.9431 43.5833 34.4333 42.8434 33.928 42.1847C33.4543 41.5666 32.9039 40.9981 32.3128 40.4883C32.1324 40.3304 31.8797 40.1905 31.7173 40.0146C31.406 39.8115 31.7263 39.3423 32.0331 39.5454C33.2648 40.3349 34.307 41.4989 35.1326 42.69C35.5703 43.3216 35.9041 44.0074 36.2109 44.7067C36.2335 44.7518 36.256 44.7969 36.2786 44.8466Z" fill="#2B2594"/>
<path d="M51.6271 14.0635C48.0945 16.2697 45.5725 20.5558 45.7078 24.7516C45.7936 27.3729 46.6553 29.7821 47.896 32.065C47.9366 32.1417 48.0449 32.2726 48.0584 32.3628C48.0765 32.5072 47.9321 32.6967 47.8148 32.4982C47.5666 32.0741 47.3095 31.659 47.0839 31.2214C46.5019 30.0935 46.0191 28.9385 45.6718 27.7158C44.8371 24.7742 45.0762 21.6612 46.3936 18.9045C47.1471 17.33 48.2118 15.9088 49.4615 14.6997C49.9578 14.2169 50.4857 13.7567 51.0542 13.3642C51.582 12.9988 52.1866 13.7252 51.6226 14.068L51.6271 14.0635Z" fill="#2B2594"/>
<path d="M54.7403 34.7179C52.4664 34.4201 50.179 34.2758 47.8961 34.569C45.4237 34.8848 42.4234 35.6924 40.9436 37.8896C40.2488 38.9183 40.136 40.168 40.7316 41.2688C41.2459 42.2208 42.2385 42.7712 43.2536 43.0464C45.6177 43.6961 48.275 43.281 50.6211 42.7126C50.8151 42.6674 51.2572 42.6359 51.3791 42.4283C51.6317 41.9907 51.0407 42.0178 50.8106 42.0674C49.7594 42.2885 48.6901 42.4374 47.6209 42.5186C46.3441 42.6178 45.0176 42.6404 43.7634 42.3471C43.1724 42.2118 42.5768 41.9907 42.0941 41.6162C41.8911 41.4583 41.7106 41.2688 41.5662 41.0523C41.7557 40.8673 41.9768 40.6959 42.2024 40.5605C43.2445 39.974 44.3048 39.6852 45.4823 39.5093C46.0373 39.4281 46.5967 39.4371 47.1562 39.4191C47.2238 39.4191 47.3456 39.4371 47.4133 39.41C47.6615 39.401 47.666 39.022 47.4133 39.0085C47.1065 38.8867 46.5696 38.9679 46.2448 38.9498C45.6718 38.9228 45.0853 38.9498 44.5168 39.022C43.3754 39.1574 42.1347 39.5183 41.2008 40.2086C40.8624 38.7468 42.1482 37.5151 43.2761 36.8294C44.6477 35.9992 46.2403 35.5616 47.8103 35.318C49.3172 35.0834 50.8557 35.0337 52.3807 35.0969C52.9762 35.1194 53.5672 35.1646 54.1582 35.2277C54.3116 35.2458 54.5237 35.3089 54.6771 35.2819C55.0335 35.318 55.0967 34.7675 54.7403 34.7179Z" fill="#2B2594"/>
<path d="M35.4393 34.6412C33.382 35.9044 28.5275 35.9225 22.7932 34.4652C17.6499 33.1613 14.1037 30.2288 8.75289 26.6375C0.749215 21.2641 2.49071 10.2421 9.27173 4.19199C18.9267 -4.42528 30.0795 2.09406 33.3685 7.27345C36.0529 11.5054 37.3387 17.4517 37.7809 22.6447C38.2772 28.4106 37.5012 33.3824 35.4439 34.6412H35.4393Z" fill="white"/>
<path d="M3.83512 18.8955C6.99328 18.4353 24.106 36.1932 9.65065 40.768C-4.80921 45.3473 0.320543 19.4053 3.83512 18.8955Z" fill="#222A57"/>
<path d="M26.5513 1.93607C25.2114 4.30469 37.6274 20.3301 45.1709 12.1414C52.7189 3.94827 29.4343 -3.15759 26.5513 1.93607Z" fill="#222A57"/>
<path d="M100.809 42.2614C100.809 42.2614 97.4159 40.556 94.4022 43.0329C93.7886 43.5337 92.9359 43.9352 91.9433 44.2465C88.3971 45.3519 82.9832 45.3339 79.6987 44.7609C79.3558 44.6977 79.0354 44.63 78.7422 44.5624C75.4442 43.7548 70.8378 46.1144 64.1605 47.4047C63.0191 47.6303 61.8099 47.8243 60.5422 47.9596C57.2171 48.3206 54.3522 47.9506 51.9339 47.4363C48.0359 46.6107 45.2928 45.4241 43.6641 46.349C43.7272 46.2136 44.7559 44.0119 46.1184 41.6208C46.8944 40.2537 47.7832 38.819 48.6585 37.6776C49.1232 37.0685 49.2946 36.3602 49.2766 35.5797C49.2585 34.921 49.1141 34.2126 48.9021 33.4592C48.7307 32.8501 48.5141 32.214 48.293 31.5598C48.0945 30.9687 47.887 30.3642 47.7065 29.7416C47.0523 27.5805 46.6327 25.257 47.526 22.9696C47.6253 22.7169 47.7246 22.4598 47.8238 22.1981C49.3172 18.2729 50.6346 13.8966 50.3684 9.9354C50.2421 7.95929 49.7187 6.09147 48.6269 4.42667L45.5364 3.72285C45.5364 3.72285 49.9759 -0.459458 56.3012 1.80088C56.5494 1.8866 56.7975 1.98586 57.0501 2.09414C57.3299 2.21595 57.6141 2.34679 57.8983 2.49568C62.0852 4.64774 64.3726 6.11854 66.9668 7.10659C67.0886 7.15622 67.2104 7.20133 67.3367 7.24645H67.3412C67.8736 7.43594 68.424 7.60738 69.0106 7.76078C70.3325 8.10367 71.8394 8.35632 73.7433 8.53227C78.4715 8.97441 81.8552 11.2348 84.9051 14.3433C85.4916 14.9433 86.0691 15.575 86.6376 16.2337C86.6556 16.2562 86.6737 16.2743 86.6917 16.2968C87.2828 16.9736 87.8648 17.6774 88.4468 18.4038C88.731 18.7557 89.0197 19.1121 89.304 19.473C89.5386 19.7663 89.7777 20.0731 90.0168 20.3934C90.3417 20.822 90.671 21.2732 91.0049 21.7469C91.1853 21.9996 91.3658 22.2612 91.5463 22.5274C91.826 22.938 92.1102 23.3621 92.3945 23.7997C92.6922 24.2509 92.9855 24.7111 93.2788 25.1848C93.7074 25.8661 94.1315 26.5699 94.542 27.2827C94.8172 27.7474 95.0879 28.2211 95.3586 28.6994C95.7466 29.3987 96.1301 30.107 96.5001 30.8199V30.8289C96.5001 30.8289 96.5046 30.8334 96.5046 30.8379C97.7002 33.1434 98.7559 35.4804 99.5409 37.646C100.15 39.3108 100.592 40.8763 100.809 42.2614Z" fill="#04332D"/>
<g opacity="0.1">
<path d="M86.6376 16.2335C83.1817 16.9058 79.8611 19.527 76.2789 17.7765C73.3959 16.3914 72.2409 14.6635 69.0061 14.1988C66.1231 13.7386 63.6958 11.776 61.9634 9.46604C60.2715 6.86733 59.5722 4.16033 57.0502 2.09399C57.3299 2.21581 57.6141 2.34665 57.8984 2.49553C62.2837 4.75136 64.5846 6.25825 67.3367 7.24631H67.3413C69.0828 7.8644 71.0002 8.27948 73.7433 8.53213C79.3874 9.05999 83.114 12.173 86.6376 16.2335Z" fill="#A8C3E5"/>
</g>
<g opacity="0.1">
<path d="M100.809 42.2614C100.809 42.2614 97.4159 40.556 94.4022 43.0329C93.7886 43.5337 92.9359 43.9352 91.9433 44.2465C88.3971 45.3519 82.9831 45.3339 79.6987 44.7609C79.3558 44.6977 79.0354 44.63 78.7422 44.5624C75.4442 43.7548 70.8378 46.1144 64.1605 47.4047C63.0191 47.6303 61.8099 47.8243 60.5422 47.9596C57.2171 48.3206 54.3522 47.9506 51.9339 47.4363C48.0313 46.6107 45.2883 45.4241 43.6595 46.3535C43.6595 46.3535 44.7108 44.0886 46.1184 41.6208C48.8705 41.3185 51.7083 42.4284 54.6048 43.5337C61.1783 46.0828 65.3381 42.1937 71.3792 40.9846C74.1944 40.4477 76.8789 40.0462 79.8295 40.3124C82.7846 40.5831 85.4691 41.2553 88.555 40.8493C92.0426 40.4477 94.8623 39.6447 98.2145 38.034C98.6521 37.831 99.0943 37.7046 99.5409 37.646C100.15 39.3108 100.592 40.8763 100.809 42.2614Z" fill="#2B2594"/>
</g>
<path opacity="0.2" d="M75.9161 23.1581L64.1304 27.2739L68.6894 40.329L80.4752 36.2132L75.9161 23.1581Z" fill="#04332D"/>
<path opacity="0.2" d="M59.4008 12.5838L55.8862 24.5622L47.8239 22.1981C49.3172 18.273 50.6346 13.8967 50.3684 9.93542L59.4008 12.5838Z" fill="#04332D"/>
<path opacity="0.2" d="M63.2401 34.8081C63.2401 34.8081 58.1645 37.1857 55.268 35.4442C53.2784 34.2486 50.6977 34.9976 49.2766 35.5796C49.2585 34.9209 49.1141 34.2126 48.9021 33.4591C50.8602 32.5342 53.8875 32.1823 55.7327 33.6486C57.8081 35.2908 62.3829 32.9673 62.3829 32.9673L63.2401 34.8081Z" fill="#04332D"/>
<path opacity="0.2" d="M62.0356 30.8558C62.0356 30.8558 58.2007 33.432 54.7041 31.1761C52.4122 29.6963 49.8135 30.6979 48.2931 31.5596C48.0945 30.9686 47.887 30.364 47.7065 29.7414C50.1158 28.4285 53.698 27.2239 55.7328 29.0692C58.2999 31.4017 61.3588 29.0692 61.3588 29.0692L62.0356 30.8558Z" fill="#04332D"/>
<path opacity="0.2" d="M69.0106 7.76064C68.1624 8.47799 67.242 9.59237 67.2375 11.0361C67.2285 13.7115 61.2686 16.626 61.2686 16.626L60.1542 14.4514C60.1542 14.4514 63.6327 14.086 65.1215 10.233C65.6449 8.87501 66.3171 7.85538 66.9668 7.10645C67.0886 7.15607 67.2104 7.20119 67.3367 7.24631H67.3412C67.8736 7.4358 68.424 7.60724 69.0106 7.76064Z" fill="#04332D"/>
<path opacity="0.2" d="M90.0168 20.3933L79.2069 24.3094L78.3857 22.0491L88.4467 18.4037C88.731 18.7556 89.0197 19.112 89.3039 19.4729C89.5386 19.7662 89.7777 20.073 90.0168 20.3933Z" fill="#04332D"/>
<path opacity="0.2" d="M92.3945 23.7996L80.6777 28.0406L79.8611 25.7802L91.0049 21.7468C91.1853 21.9995 91.3658 22.2612 91.5463 22.5273C91.826 22.9379 92.1102 23.362 92.3945 23.7996Z" fill="#04332D"/>
<path opacity="0.2" d="M94.542 27.2826L82.1485 31.7717L81.3319 29.5114L93.2788 25.1847C93.7074 25.866 94.1315 26.5698 94.542 27.2826Z" fill="#04332D"/>
<path opacity="0.2" d="M96.5046 30.8379L83.6239 35.5029L82.8027 33.2426L95.3587 28.6993C95.7467 29.3986 96.1302 30.107 96.5001 30.8198V30.8288C96.5001 30.8288 96.5046 30.8334 96.5046 30.8379Z" fill="#04332D"/>
<path opacity="0.2" d="M86.6917 16.2967L63.5424 24.8914L62.7123 22.7799L84.9051 14.3431C85.4916 14.9432 86.0691 15.5748 86.6376 16.2335C86.6556 16.2561 86.6737 16.2741 86.6917 16.2967Z" fill="#04332D"/>
<path opacity="0.3" d="M35.4393 34.6412C33.382 35.9045 28.5275 35.9225 22.7932 34.4652C21.2637 29.7506 23.2939 25.9788 23.5737 24.0027C23.8579 22.0176 21.9901 19.3783 23.1225 18.3902C24.5392 17.1495 27.3409 20.813 30.8826 20.9573C34.2979 21.0927 36.5221 21.3634 37.7764 22.6492C38.2726 28.4151 37.4966 33.387 35.4393 34.6457V34.6412Z" fill="#2B2594"/>
<path d="M34.7896 36.5857C28.3425 31.704 19.5898 33.9148 19.5898 33.9148L20.6997 37.8895L34.2076 39.1799L34.9746 36.8158" fill="white"/>
<path d="M37.5552 42.7126C37.4244 42.7126 37.3071 42.6178 37.28 42.487C36.6123 39.189 34.9881 36.7752 32.4616 35.318C26.3799 31.8079 16.955 34.8984 16.8603 34.93C16.7114 34.9796 16.5535 34.8984 16.5038 34.7495C16.4542 34.6006 16.5354 34.4427 16.6843 34.3931C17.0813 34.2622 26.443 31.1898 32.7458 34.8262C35.4212 36.3692 37.1311 38.9092 37.8349 42.3742C37.8665 42.5276 37.7673 42.6765 37.6139 42.7081C37.5958 42.7081 37.5778 42.7126 37.5552 42.7126Z" fill="#2B2594"/>
<path d="M28.4823 30.2108C29.4794 31.8576 32.4436 32.6877 33.3639 32.0516C34.2843 31.4154 34.4964 28.8664 33.788 27.17C33.0797 25.4736 27.2822 28.2302 28.4823 30.2108Z" fill="#222A57"/>
<path d="M15.0917 25.5142C15.2677 25.6676 15.6918 25.7352 15.9128 25.8029C16.3234 25.9247 16.7385 26.0105 17.1626 26.0601C17.6949 26.0736 18.2724 26.0195 18.683 25.636C18.6695 25.6495 18.6559 25.6631 18.6379 25.6766C19.0755 25.2164 19.3417 24.7698 19.3688 24.1156C19.3868 23.687 19.3282 23.2674 19.2424 22.8478C19.2063 22.6628 19.1071 22.4102 19.1928 22.2297C19.5492 21.4582 20.2711 22.8388 20.3884 23.105C20.7448 23.9125 20.8305 24.8871 20.4606 25.7082C19.8966 26.9444 18.7146 27.4948 17.3972 27.4587C16.5354 27.3369 15.7414 27.012 15.0466 26.4842C14.8752 26.3579 14.6135 26.1819 14.5052 25.9879C14.3067 25.627 14.7759 25.248 15.0872 25.5142C14.9338 25.3833 15.0917 25.5187 15.0872 25.5142H15.0917Z" fill="#222A57"/>
<path d="M27.3544 16.7254C27.5304 16.8788 27.9499 16.9464 28.1755 17.0141C28.5861 17.1359 29.0012 17.2216 29.4253 17.2713C29.9576 17.2848 30.5351 17.2307 30.9457 16.8472C30.9322 16.8607 30.9186 16.8742 30.9006 16.8878C31.3382 16.4276 31.6044 15.9809 31.6315 15.3267C31.6495 14.8981 31.5909 14.4786 31.5051 14.059C31.469 13.874 31.3698 13.6213 31.4555 13.4409C31.8119 12.6694 32.5338 14.0499 32.6511 14.3161C33.0075 15.1237 33.0932 16.0982 32.7233 16.9194C32.1593 18.1556 30.9773 18.706 29.6599 18.6699C28.7981 18.5481 28.0041 18.2232 27.3093 17.6954C27.1379 17.569 26.8762 17.3931 26.7679 17.1991C26.5694 16.8381 27.0386 16.4592 27.3499 16.7254H27.3544Z" fill="#222A57"/>
</svg>
