<svg width="25" height="24" viewBox="0 0 25 24" fill="none" xmlns="http://www.w3.org/2000/svg">
<g clip-path="url(#clip0_11_1251)">
<path fill-rule="evenodd" clip-rule="evenodd" d="M16.8875 3C14.9515 3 13.2565 3.8325 12.2 5.23969C11.1434 3.8325 9.44839 3 7.51245 3C4.3038 3.00362 1.70357 5.60384 1.69995 8.8125C1.69995 15.375 11.4303 20.6869 11.8446 20.9062C12.0665 21.0256 12.3334 21.0256 12.5553 20.9062C12.9696 20.6869 22.7 15.375 22.7 8.8125C22.6963 5.60384 20.0961 3.00362 16.8875 3ZM12.2 19.3875C10.4881 18.39 3.19995 13.8459 3.19995 8.8125C3.20305 6.43206 5.13201 4.5031 7.51245 4.5C9.33589 4.5 10.8668 5.47125 11.5062 7.03125C11.6218 7.31259 11.8958 7.49627 12.2 7.49627C12.5041 7.49627 12.7781 7.31259 12.8937 7.03125C13.5331 5.46844 15.064 4.5 16.8875 4.5C19.2679 4.5031 21.1969 6.43206 21.2 8.8125C21.2 13.8384 13.91 18.3891 12.2 19.3875Z" fill="#737373"/>
</g>
<defs>
<clipPath id="clip0_11_1251">
<rect width="24" height="24" fill="white" transform="translate(0.199951)"/>
</clipPath>
</defs>
</svg>
