<svg width="25" height="24" viewBox="0 0 25 24" fill="none" xmlns="http://www.w3.org/2000/svg">
<g clip-path="url(#clip0_11_1504)">
<path fill-rule="evenodd" clip-rule="evenodd" d="M21.1153 9.72844L13.6153 2.65219C13.6116 2.64899 13.6082 2.64554 13.605 2.64188C13.0328 2.1215 12.1587 2.1215 11.5865 2.64188L11.5762 2.65219L4.08466 9.72844C3.77571 10.0125 3.59991 10.4131 3.59998 10.8328V19.5C3.59998 20.3284 4.27155 21 5.09998 21H9.59998C10.4284 21 11.1 20.3284 11.1 19.5V15H14.1V19.5C14.1 20.3284 14.7715 21 15.6 21H20.1C20.9284 21 21.6 20.3284 21.6 19.5V10.8328C21.6 10.4131 21.4242 10.0125 21.1153 9.72844ZM20.1 19.5H15.6V15C15.6 14.1716 14.9284 13.5 14.1 13.5H11.1C10.2715 13.5 9.59998 14.1716 9.59998 15V19.5H5.09998V10.8328L5.11029 10.8234L12.6 3.75L20.0906 10.8216L20.1009 10.8309L20.1 19.5Z" fill="#737373"/>
</g>
<defs>
<clipPath id="clip0_11_1504">
<rect width="24" height="24" fill="white" transform="translate(0.599976)"/>
</clipPath>
</defs>
</svg>
