<svg width="25" height="24" viewBox="0 0 25 24" fill="none" xmlns="http://www.w3.org/2000/svg">
<g clip-path="url(#clip0_11_1258)">
<path fill-rule="evenodd" clip-rule="evenodd" d="M22.0497 20.625C21.9157 20.8571 21.668 21.0001 21.4 21H3.40002C3.13221 20.9997 2.88487 20.8567 2.75108 20.6247C2.6173 20.3927 2.61737 20.1069 2.75127 19.875C4.17909 17.4066 6.3794 15.6366 8.94721 14.7975C6.33647 13.2433 5.08587 10.1364 5.89184 7.2069C6.69781 4.27741 9.36169 2.24745 12.4 2.24745C15.4384 2.24745 18.1022 4.27741 18.9082 7.2069C19.7142 10.1364 18.4636 13.2433 15.8528 14.7975C18.4206 15.6366 20.621 17.4066 22.0488 19.875C22.183 20.1069 22.1834 20.3928 22.0497 20.625Z" fill="#737373"/>
</g>
<defs>
<clipPath id="clip0_11_1258">
<rect width="24" height="24" fill="white" transform="translate(0.400024)"/>
</clipPath>
</defs>
</svg>
