<svg width="25" height="24" viewBox="0 0 25 24" fill="none" xmlns="http://www.w3.org/2000/svg">
<g clip-path="url(#clip0_11_1237)">
<path fill-rule="evenodd" clip-rule="evenodd" d="M22.3306 20.4694L17.6365 15.7762C20.4628 12.383 20.1204 7.36693 16.8591 4.38935C13.5977 1.41176 8.57127 1.526 5.4486 4.64867C2.32593 7.77134 2.21169 12.7978 5.18928 16.0591C8.16686 19.3204 13.183 19.6629 16.5762 16.8366L21.2693 21.5306C21.5624 21.8237 22.0375 21.8237 22.3306 21.5306C22.6236 21.2376 22.6236 20.7624 22.3306 20.4694ZM4.54993 10.5C4.54993 6.77208 7.572 3.75 11.2999 3.75C15.0278 3.75 18.0499 6.77208 18.0499 10.5C18.0499 14.2279 15.0278 17.25 11.2999 17.25C7.57372 17.2459 4.55406 14.2262 4.54993 10.5Z" fill="#737373"/>
</g>
<defs>
<clipPath id="clip0_11_1237">
<rect width="24" height="24" fill="white" transform="translate(0.799927)"/>
</clipPath>
</defs>
</svg>
